<svg width="36" height="36" viewBox="0 0 36 36" fill="none" xmlns="http://www.w3.org/2000/svg">
<path d="M17.9998 26.3334C22.6022 26.3334 26.3332 22.6024 26.3332 18C26.3332 13.3976 22.6022 9.66669 17.9998 9.66669C13.3975 9.66669 9.6665 13.3976 9.6665 18C9.6665 22.6024 13.3975 26.3334 17.9998 26.3334Z" stroke="white" stroke-width="1.25"/>
<path d="M13 11.925C13.65 12.5175 14.99 14.1359 15.1458 15.8725C15.2917 17.4967 16.3625 18.8167 18 18.8334C18.6292 18.84 19.265 18.3859 19.2633 17.7567C19.2633 17.5625 19.2308 17.3634 19.1808 17.18C19.0978 16.899 19.1225 16.5972 19.25 16.3334C19.7583 15.2859 20.7583 15.0042 21.55 14.435C21.9008 14.1825 22.2217 13.9159 22.3625 13.7017C22.7533 13.11 23.1433 11.9259 22.9483 11.3334M26.3333 18.8334C26.0583 19.6092 25.8642 21.6459 22.765 21.6784C22.765 21.6784 20.0208 21.6784 19.1975 23.23C18.5383 24.4717 18.9225 25.8159 19.1975 26.3334" stroke="white" stroke-width="1.25"/>
<rect x="0.5" y="0.5" width="35" height="35" rx="17.5" stroke="white" stroke-opacity="0.44"/>
</svg>
