<svg width="320" height="23" viewBox="0 0 320 23" fill="none" xmlns="http://www.w3.org/2000/svg">
<path d="M7.672 21.132C6.23467 21.132 4.94667 20.8987 3.808 20.432C2.66933 19.9653 1.75467 19.2747 1.064 18.36C0.392 17.4453 0.0373333 16.344 0 15.056H5.096C5.17067 15.784 5.42267 16.344 5.852 16.736C6.28133 17.1093 6.84133 17.296 7.532 17.296C8.24133 17.296 8.80133 17.1373 9.212 16.82C9.62267 16.484 9.828 16.0267 9.828 15.448C9.828 14.9627 9.66 14.5613 9.324 14.244C9.00667 13.9267 8.60533 13.6653 8.12 13.46C7.65333 13.2547 6.98133 13.0213 6.104 12.76C4.83467 12.368 3.79867 11.976 2.996 11.584C2.19333 11.192 1.50267 10.6133 0.924 9.848C0.345333 9.08267 0.056 8.084 0.056 6.852C0.056 5.02267 0.718667 3.59467 2.044 2.568C3.36933 1.52267 5.096 1 7.224 1C9.38933 1 11.1347 1.52267 12.46 2.568C13.7853 3.59467 14.4947 5.032 14.588 6.88H9.408C9.37067 6.24533 9.13733 5.75067 8.708 5.396C8.27867 5.02267 7.728 4.836 7.056 4.836C6.47733 4.836 6.01067 4.99467 5.656 5.312C5.30133 5.61067 5.124 6.04933 5.124 6.628C5.124 7.26267 5.42267 7.75733 6.02 8.112C6.61733 8.46667 7.55067 8.84933 8.82 9.26C10.0893 9.68933 11.116 10.1 11.9 10.492C12.7027 10.884 13.3933 11.4533 13.972 12.2C14.5507 12.9467 14.84 13.908 14.84 15.084C14.84 16.204 14.5507 17.2213 13.972 18.136C13.412 19.0507 12.5907 19.7787 11.508 20.32C10.4253 20.8613 9.14667 21.132 7.672 21.132Z" fill="white"/>
<path d="M34.0266 1.28V5.116H28.8186V20.936H24.0306V5.116H18.8226V1.28H34.0266Z" fill="white"/>
<path d="M50.7655 17.464H43.4295L42.2535 20.936H37.2415L44.3535 1.28H49.8975L57.0095 20.936H51.9415L50.7655 17.464ZM49.5335 13.768L47.0975 6.572L44.6895 13.768H49.5335Z" fill="white"/>
<path d="M71.2981 20.936L67.2101 13.516H66.0621V20.936H61.2741V1.28H69.3101C70.8594 1.28 72.1754 1.55067 73.2581 2.092C74.3594 2.63333 75.1807 3.38 75.7221 4.332C76.2634 5.26533 76.5341 6.31067 76.5341 7.468C76.5341 8.77467 76.1607 9.94133 75.4141 10.968C74.6861 11.9947 73.6034 12.7227 72.1661 13.152L76.7021 20.936H71.2981ZM66.0621 10.128H69.0301C69.9074 10.128 70.5607 9.91333 70.9901 9.484C71.4381 9.05467 71.6621 8.448 71.6621 7.664C71.6621 6.91733 71.4381 6.32933 70.9901 5.9C70.5607 5.47067 69.9074 5.256 69.0301 5.256H66.0621V10.128Z" fill="white"/>
<path d="M86.4277 17.24H92.6997V20.936H81.6397V1.28H86.4277V17.24Z" fill="white"/>
<path d="M101.871 1.28V20.936H97.0834V1.28H101.871Z" fill="white"/>
<path d="M125.025 20.936H120.237L112.229 8.812V20.936H107.441V1.28H112.229L120.237 13.46V1.28H125.025V20.936Z" fill="white"/>
<path d="M141.992 20.936L135.384 12.256V20.936H130.596V1.28H135.384V9.904L141.936 1.28H147.564L139.948 10.912L147.844 20.936H141.992Z" fill="white"/>
<mask id="path-2-outside-1_758_23108" maskUnits="userSpaceOnUse" x="164.844" y="0" width="155" height="23" fill="black">
<rect fill="white" x="164.844" width="155" height="23"/>
<path d="M170.632 5.116V9.092H177.044V12.788H170.632V17.1H177.884V20.936H165.844V1.28H177.884V5.116H170.632ZM195.132 20.936L191.128 14.916L187.6 20.936H182.168L188.468 10.94L182.028 1.28H187.6L191.548 7.216L195.02 1.28H200.452L194.208 11.192L200.704 20.936H195.132ZM220.188 7.608C220.188 8.74667 219.926 9.792 219.404 10.744C218.881 11.6773 218.078 12.4333 216.996 13.012C215.913 13.5907 214.569 13.88 212.964 13.88H209.996V20.936H205.208V1.28H212.964C214.532 1.28 215.857 1.55067 216.94 2.092C218.022 2.63333 218.834 3.38 219.376 4.332C219.917 5.284 220.188 6.376 220.188 7.608ZM212.6 10.072C213.514 10.072 214.196 9.85733 214.644 9.428C215.092 8.99867 215.316 8.392 215.316 7.608C215.316 6.824 215.092 6.21733 214.644 5.788C214.196 5.35867 213.514 5.144 212.6 5.144H209.996V10.072H212.6ZM229.568 17.24H235.84V20.936H224.78V1.28H229.568V17.24ZM249.52 21.132C247.672 21.132 245.974 20.7027 244.424 19.844C242.894 18.9853 241.671 17.7907 240.756 16.26C239.86 14.7107 239.412 12.9747 239.412 11.052C239.412 9.12933 239.86 7.40267 240.756 5.872C241.671 4.34133 242.894 3.14667 244.424 2.288C245.974 1.42933 247.672 1 249.52 1C251.368 1 253.058 1.42933 254.588 2.288C256.138 3.14667 257.351 4.34133 258.228 5.872C259.124 7.40267 259.572 9.12933 259.572 11.052C259.572 12.9747 259.124 14.7107 258.228 16.26C257.332 17.7907 256.119 18.9853 254.588 19.844C253.058 20.7027 251.368 21.132 249.52 21.132ZM249.52 16.764C251.088 16.764 252.339 16.2413 253.272 15.196C254.224 14.1507 254.7 12.7693 254.7 11.052C254.7 9.316 254.224 7.93467 253.272 6.908C252.339 5.86267 251.088 5.34 249.52 5.34C247.934 5.34 246.664 5.85333 245.712 6.88C244.779 7.90667 244.312 9.29733 244.312 11.052C244.312 12.788 244.779 14.1787 245.712 15.224C246.664 16.2507 247.934 16.764 249.52 16.764ZM274.36 20.936L270.272 13.516H269.124V20.936H264.336V1.28H272.372C273.921 1.28 275.237 1.55067 276.32 2.092C277.421 2.63333 278.243 3.38 278.784 4.332C279.325 5.26533 279.596 6.31067 279.596 7.468C279.596 8.77467 279.223 9.94133 278.476 10.968C277.748 11.9947 276.665 12.7227 275.228 13.152L279.764 20.936H274.36ZM269.124 10.128H272.092C272.969 10.128 273.623 9.91333 274.052 9.484C274.5 9.05467 274.724 8.448 274.724 7.664C274.724 6.91733 274.5 6.32933 274.052 5.9C273.623 5.47067 272.969 5.256 272.092 5.256H269.124V10.128ZM289.49 5.116V9.092H295.902V12.788H289.49V17.1H296.742V20.936H284.702V1.28H296.742V5.116H289.49ZM311.974 20.936L307.886 13.516H306.738V20.936H301.95V1.28H309.986C311.535 1.28 312.851 1.55067 313.934 2.092C315.035 2.63333 315.857 3.38 316.398 4.332C316.939 5.26533 317.21 6.31067 317.21 7.468C317.21 8.77467 316.837 9.94133 316.09 10.968C315.362 11.9947 314.279 12.7227 312.842 13.152L317.378 20.936H311.974ZM306.738 10.128H309.706C310.583 10.128 311.237 9.91333 311.666 9.484C312.114 9.05467 312.338 8.448 312.338 7.664C312.338 6.91733 312.114 6.32933 311.666 5.9C311.237 5.47067 310.583 5.256 309.706 5.256H306.738V10.128Z"/>
</mask>
<path d="M170.632 5.116V9.092H177.044V12.788H170.632V17.1H177.884V20.936H165.844V1.28H177.884V5.116H170.632ZM195.132 20.936L191.128 14.916L187.6 20.936H182.168L188.468 10.94L182.028 1.28H187.6L191.548 7.216L195.02 1.28H200.452L194.208 11.192L200.704 20.936H195.132ZM220.188 7.608C220.188 8.74667 219.926 9.792 219.404 10.744C218.881 11.6773 218.078 12.4333 216.996 13.012C215.913 13.5907 214.569 13.88 212.964 13.88H209.996V20.936H205.208V1.28H212.964C214.532 1.28 215.857 1.55067 216.94 2.092C218.022 2.63333 218.834 3.38 219.376 4.332C219.917 5.284 220.188 6.376 220.188 7.608ZM212.6 10.072C213.514 10.072 214.196 9.85733 214.644 9.428C215.092 8.99867 215.316 8.392 215.316 7.608C215.316 6.824 215.092 6.21733 214.644 5.788C214.196 5.35867 213.514 5.144 212.6 5.144H209.996V10.072H212.6ZM229.568 17.24H235.84V20.936H224.78V1.28H229.568V17.24ZM249.52 21.132C247.672 21.132 245.974 20.7027 244.424 19.844C242.894 18.9853 241.671 17.7907 240.756 16.26C239.86 14.7107 239.412 12.9747 239.412 11.052C239.412 9.12933 239.86 7.40267 240.756 5.872C241.671 4.34133 242.894 3.14667 244.424 2.288C245.974 1.42933 247.672 1 249.52 1C251.368 1 253.058 1.42933 254.588 2.288C256.138 3.14667 257.351 4.34133 258.228 5.872C259.124 7.40267 259.572 9.12933 259.572 11.052C259.572 12.9747 259.124 14.7107 258.228 16.26C257.332 17.7907 256.119 18.9853 254.588 19.844C253.058 20.7027 251.368 21.132 249.52 21.132ZM249.52 16.764C251.088 16.764 252.339 16.2413 253.272 15.196C254.224 14.1507 254.7 12.7693 254.7 11.052C254.7 9.316 254.224 7.93467 253.272 6.908C252.339 5.86267 251.088 5.34 249.52 5.34C247.934 5.34 246.664 5.85333 245.712 6.88C244.779 7.90667 244.312 9.29733 244.312 11.052C244.312 12.788 244.779 14.1787 245.712 15.224C246.664 16.2507 247.934 16.764 249.52 16.764ZM274.36 20.936L270.272 13.516H269.124V20.936H264.336V1.28H272.372C273.921 1.28 275.237 1.55067 276.32 2.092C277.421 2.63333 278.243 3.38 278.784 4.332C279.325 5.26533 279.596 6.31067 279.596 7.468C279.596 8.77467 279.223 9.94133 278.476 10.968C277.748 11.9947 276.665 12.7227 275.228 13.152L279.764 20.936H274.36ZM269.124 10.128H272.092C272.969 10.128 273.623 9.91333 274.052 9.484C274.5 9.05467 274.724 8.448 274.724 7.664C274.724 6.91733 274.5 6.32933 274.052 5.9C273.623 5.47067 272.969 5.256 272.092 5.256H269.124V10.128ZM289.49 5.116V9.092H295.902V12.788H289.49V17.1H296.742V20.936H284.702V1.28H296.742V5.116H289.49ZM311.974 20.936L307.886 13.516H306.738V20.936H301.95V1.28H309.986C311.535 1.28 312.851 1.55067 313.934 2.092C315.035 2.63333 315.857 3.38 316.398 4.332C316.939 5.26533 317.21 6.31067 317.21 7.468C317.21 8.77467 316.837 9.94133 316.09 10.968C315.362 11.9947 314.279 12.7227 312.842 13.152L317.378 20.936H311.974ZM306.738 10.128H309.706C310.583 10.128 311.237 9.91333 311.666 9.484C312.114 9.05467 312.338 8.448 312.338 7.664C312.338 6.91733 312.114 6.32933 311.666 5.9C311.237 5.47067 310.583 5.256 309.706 5.256H306.738V10.128Z" stroke="#969696" stroke-width="2" mask="url(#path-2-outside-1_758_23108)"/>
</svg>
