<svg width="36" height="36" viewBox="0 0 36 36" fill="none" xmlns="http://www.w3.org/2000/svg">
<path d="M11.3335 14.6666H24.6668M11.3335 14.6666V22C11.3335 22.9333 11.3335 23.4 11.5152 23.7566C11.6749 24.0702 11.9299 24.3252 12.2435 24.485C12.5993 24.6666 13.066 24.6666 13.9977 24.6666H22.0027C22.9343 24.6666 23.4002 24.6666 23.756 24.485C24.0702 24.325 24.3252 24.07 24.4852 23.7566C24.6668 23.4 24.6668 22.935 24.6668 22.0033V14.6666M11.3335 14.6666V14C11.3335 13.0666 11.3335 12.6 11.5152 12.2433C11.6752 11.9291 11.9293 11.675 12.2435 11.515C12.6002 11.3333 13.0668 11.3333 14.0002 11.3333H14.6668M24.6668 14.6666V13.9975C24.6668 13.0658 24.6668 12.5991 24.4852 12.2433C24.3251 11.9296 24.0699 11.6747 23.756 11.515C23.4002 11.3333 22.9335 11.3333 22.0002 11.3333H21.3335M14.6668 11.3333H21.3335M14.6668 11.3333V9.66663M21.3335 11.3333V9.66663M17.7918 21.3333C17.8471 21.3333 17.9001 21.3113 17.9391 21.2723C17.9782 21.2332 18.0002 21.1802 18.0002 21.125V18.2083C18.0002 18.153 17.9782 18.1 17.9391 18.061C17.9001 18.0219 17.8471 18 17.7918 18H14.8752C14.8199 18 14.7669 18.0219 14.7278 18.061C14.6888 18.1 14.6668 18.153 14.6668 18.2083V21.125C14.6668 21.24 14.7602 21.3333 14.8752 21.3333H17.7918Z" stroke="#F2F2F2" stroke-width="1.5" stroke-linecap="round" stroke-linejoin="round"/>
<rect x="0.5" y="0.5" width="35" height="35" rx="17.5" stroke="white" stroke-opacity="0.44"/>
</svg>
