<svg width="20" height="20" viewBox="0 0 20 20" fill="none" xmlns="http://www.w3.org/2000/svg">
<path d="M5.72753 14.2742C4.19003 13.1826 2.97336 11.7626 2.28586 10.8659C2.09362 10.6184 1.98926 10.3139 1.98926 10.0005C1.98926 9.68709 2.09362 9.3826 2.28586 9.13508C3.53003 7.51091 6.51503 4.16675 10 4.16675C11.5634 4.16675 13.025 4.83925 14.275 5.72841" stroke="white" stroke-width="1.66667" stroke-linecap="round" stroke-linejoin="round"/>
<path d="M11.7747 8.23921C11.5433 8.00393 11.2675 7.8168 10.9634 7.68861C10.6593 7.56042 10.3329 7.49372 10.0028 7.49233C9.67282 7.49095 9.3458 7.55492 9.04063 7.68056C8.73546 7.80619 8.45819 7.99101 8.22481 8.22434C7.99142 8.45767 7.80654 8.7349 7.68084 9.04003C7.55513 9.34517 7.49108 9.67218 7.49238 10.0022C7.49369 10.3322 7.56032 10.6587 7.68844 10.9628C7.81655 11.267 8.00362 11.5427 8.23884 11.7742M3.33301 16.6667L16.6663 3.33337M8.33301 15.5867C8.87401 15.7477 9.43522 15.8308 9.99967 15.8334C13.4847 15.8334 16.4697 12.4892 17.7138 10.865C17.906 10.6173 18.0103 10.3126 18.0101 9.99906C18.01 9.68551 17.9054 9.38093 17.713 9.13337C17.2758 8.56295 16.8067 8.01764 16.308 7.50004" stroke="white" stroke-width="1.66667" stroke-linecap="round" stroke-linejoin="round"/>
</svg>
