<svg width="36" height="36" viewBox="0 0 36 36" fill="none" xmlns="http://www.w3.org/2000/svg">
<path d="M16.6906 10.1119C16.7075 10.0442 16.7465 9.98419 16.8014 9.94127C16.8563 9.89834 16.924 9.87502 16.9938 9.875H19.0063C19.076 9.87502 19.1437 9.89834 19.1986 9.94127C19.2535 9.98419 19.2925 10.0442 19.3094 10.1119L19.74 11.835C19.7535 11.8876 19.7802 11.936 19.8174 11.9756C19.8547 12.0151 19.9014 12.0446 19.9531 12.0613C20.1925 12.14 20.425 12.2325 20.65 12.3381C20.6939 12.359 20.7419 12.3697 20.7905 12.3694C20.8391 12.3691 20.887 12.3577 20.9306 12.3363L22.66 11.4719C22.7186 11.4425 22.785 11.4323 22.8497 11.4428C22.9144 11.4532 22.9742 11.4837 23.0206 11.53L24.47 12.9794C24.5163 13.0258 24.5468 13.0856 24.5572 13.1503C24.5677 13.215 24.5575 13.2814 24.5281 13.34L23.6638 15.0694C23.6423 15.113 23.6309 15.1609 23.6306 15.2095C23.6303 15.2581 23.641 15.3061 23.6619 15.35C23.7413 15.5194 23.8138 15.6931 23.8781 15.8706C23.9113 15.9631 23.9844 16.0362 24.0775 16.0675L25.9113 16.6787C25.9735 16.6995 26.0276 16.7392 26.0659 16.7924C26.1043 16.8456 26.125 16.9094 26.125 16.975V19.025C26.125 19.0906 26.1043 19.1544 26.0659 19.2076C26.0276 19.2608 25.9735 19.3005 25.9113 19.3213L24.0775 19.9325C24.0315 19.9481 23.9896 19.9739 23.9549 20.008C23.9203 20.0421 23.8938 20.0836 23.8775 20.1294C23.8135 20.3061 23.7416 20.4798 23.6619 20.65C23.641 20.6939 23.6303 20.7419 23.6306 20.7905C23.6309 20.8391 23.6423 20.887 23.6638 20.9306L24.5281 22.66C24.5575 22.7186 24.5677 22.785 24.5572 22.8497C24.5468 22.9144 24.5163 22.9742 24.47 23.0206L23.0206 24.47C22.9742 24.5163 22.9144 24.5468 22.8497 24.5572C22.785 24.5677 22.7186 24.5575 22.66 24.5281L20.9306 23.6638C20.887 23.6423 20.8391 23.6309 20.7905 23.6306C20.7419 23.6303 20.6939 23.641 20.65 23.6619C20.4798 23.7418 20.3061 23.8139 20.1294 23.8781C20.0837 23.8944 20.0422 23.9207 20.0081 23.9553C19.974 23.9898 19.9482 24.0316 19.9325 24.0775L19.3213 25.9113C19.3005 25.9735 19.2608 26.0276 19.2076 26.0659C19.1544 26.1043 19.0906 26.125 19.025 26.125H16.975C16.9094 26.125 16.8456 26.1043 16.7924 26.0659C16.7392 26.0276 16.6995 25.9735 16.6787 25.9113L16.0675 24.0775C16.0519 24.0315 16.0261 23.9896 15.992 23.9549C15.9579 23.9203 15.9164 23.8938 15.8706 23.8775C15.6355 23.7925 15.4057 23.6933 15.1825 23.5806C15.1341 23.5556 15.0802 23.5433 15.0257 23.5449C14.9713 23.5464 14.9182 23.5617 14.8713 23.5894L13.3481 24.5038C13.2884 24.5397 13.2183 24.5545 13.1491 24.546C13.0799 24.5376 13.0156 24.5062 12.9663 24.4569L11.5431 23.0338C11.494 22.9845 11.4627 22.9202 11.4542 22.8512C11.4457 22.7821 11.4605 22.7122 11.4962 22.6525L12.4106 21.1288C12.4383 21.0818 12.4536 21.0287 12.4551 20.9743C12.4567 20.9198 12.4444 20.8659 12.4194 20.8175C12.2784 20.5388 12.1587 20.2498 12.0613 19.9531C12.0446 19.9014 12.0151 19.8547 11.9756 19.8174C11.936 19.7802 11.8876 19.7535 11.835 19.74L10.1119 19.3087C10.0443 19.2919 9.98437 19.253 9.94146 19.1982C9.89855 19.1434 9.87516 19.0759 9.875 19.0063V16.9938C9.87502 16.924 9.89834 16.8563 9.94127 16.8014C9.98419 16.7465 10.0442 16.7075 10.1119 16.6906L11.835 16.26C11.8876 16.2465 11.936 16.2198 11.9756 16.1826C12.0151 16.1453 12.0446 16.0986 12.0613 16.0469C12.1594 15.7481 12.28 15.4594 12.4194 15.1825C12.4444 15.1341 12.4567 15.0802 12.4551 15.0257C12.4536 14.9713 12.4383 14.9182 12.4106 14.8713L11.4962 13.3481C11.4603 13.2884 11.4455 13.2183 11.454 13.1491C11.4624 13.0799 11.4938 13.0156 11.5431 12.9663L12.9663 11.5431C13.0155 11.494 13.0798 11.4627 13.1488 11.4542C13.2179 11.4457 13.2878 11.4605 13.3475 11.4962L14.8713 12.4106C14.9663 12.4675 15.0837 12.4694 15.1825 12.4194C15.461 12.2785 15.7497 12.1588 16.0462 12.0613C16.0981 12.0447 16.1449 12.0152 16.1823 11.9757C16.2197 11.9361 16.2464 11.8877 16.26 11.835L16.6913 10.1119H16.6906Z" stroke="white" stroke-width="1.25" stroke-linecap="round" stroke-linejoin="round"/>
<path d="M21.125 18C21.125 18.8288 20.7958 19.6237 20.2097 20.2097C19.6237 20.7958 18.8288 21.125 18 21.125C17.1712 21.125 16.3763 20.7958 15.7903 20.2097C15.2042 19.6237 14.875 18.8288 14.875 18C14.875 17.1712 15.2042 16.3763 15.7903 15.7903C16.3763 15.2042 17.1712 14.875 18 14.875C18.8288 14.875 19.6237 15.2042 20.2097 15.7903C20.7958 16.3763 21.125 17.1712 21.125 18Z" stroke="white" stroke-width="1.25" stroke-linecap="round" stroke-linejoin="round"/>
<rect x="0.5" y="0.5" width="35" height="35" rx="17.5" stroke="white" stroke-opacity="0.44"/>
</svg>
